<?xml version="1.0" encoding="UTF-8"?>
<!DOCTYPE svg PUBLIC "-//W3C//DTD SVG 1.1//EN" "http://www.w3.org/Graphics/SVG/1.1/DTD/svg11.dtd">
<!-- Creator: CorelDRAW X7 -->
<svg xmlns="http://www.w3.org/2000/svg" xml:space="preserve" width="0.213339in" height="0.213339in" version="1.1" style="shape-rendering:geometricPrecision; text-rendering:geometricPrecision; image-rendering:optimizeQuality; fill-rule:evenodd; clip-rule:evenodd"
viewBox="0 0 60 60"
 xmlns:xlink="http://www.w3.org/1999/xlink">
 <defs>
  <style type="text/css">
   <![CDATA[
    .fil0 {fill:#DEDFF1}
    .fil2 {fill:#F7971E}
    .fil3 {fill:#172D54;fill-rule:nonzero}
    .fil1 {fill:#3A649C;fill-rule:nonzero}
   ]]>
  </style>
 </defs>
 <g id="Layer_x0020_1">
  <metadata id="CorelCorpID_0Corel-Layer"/>
  <g id="_2774963067360">
   <path class="fil0" d="M0 0l46 0c8,0 14,6 14,14l0 46 -60 0 0 -60z"/>
   <path class="fil1" d="M17 44l0 -14 7 0 0 7 6 0c1,0 2,0 3,0 1,-1 1,-1 2,-2 0,0 1,-1 1,-2 0,-1 0,-2 0,-3 0,-1 0,-2 0,-3 0,-1 -1,-1 -1,-2 -1,-1 -1,-1 -2,-1 -1,-1 -2,-1 -3,-1l-4 0c0,0 0,0 0,0 0,-1 -1,-2 -1,-3 -1,-1 -1,-2 -1,-4l6 0c2,0 4,1 6,2 2,0 3,1 5,3 1,1 2,2 2,4 1,2 1,3 1,5 0,2 0,4 -1,6 -1,2 -2,3 -3,4 -1,1 -2,2 -4,3 -2,1 -4,1 -6,1l-13 0z"/>
   <path class="fil2" d="M16 25c0,1 0,2 1,3 0,0 1,0 1,1 1,0 1,0 1,0 0,-1 0,-2 1,-4 0,1 0,3 1,4 3,0 4,-3 3,-6 -1,-3 -2,-2 -2,-7 -2,2 -6,6 -6,9z"/>
   <path class="fil3" d="M17 44l0 -14 7 0 0 7 7 0c6,0 10,-1 13,-4l0 0c0,1 -1,2 -1,3 -1,2 -2,3 -3,4 -1,1 -2,2 -4,3 -2,1 -4,1 -6,1l-13 0z"/>
  </g>
 </g>
</svg>
