<?xml version="1.0" encoding="UTF-8"?>
<!DOCTYPE svg PUBLIC "-//W3C//DTD SVG 1.1//EN" "http://www.w3.org/Graphics/SVG/1.1/DTD/svg11.dtd">
<!-- Creator: CorelDRAW X7 -->
<svg xmlns="http://www.w3.org/2000/svg" xml:space="preserve" width="0.0666693in" height="0.0666693in" version="1.1" style="shape-rendering:geometricPrecision; text-rendering:geometricPrecision; image-rendering:optimizeQuality; fill-rule:evenodd; clip-rule:evenodd"
viewBox="0 0 7 7"
 xmlns:xlink="http://www.w3.org/1999/xlink">
 <defs>
  <style type="text/css">
   <![CDATA[
    .fil0 {fill:#DEDFF1}
    .fil2 {fill:#F7971E}
    .fil3 {fill:#172D54;fill-rule:nonzero}
    .fil1 {fill:#3A649C;fill-rule:nonzero}
   ]]>
  </style>
 </defs>
 <g id="Layer_x0020_1">
  <metadata id="CorelCorpID_0Corel-Layer"/>
  <g id="_2774963000672">
   <path class="fil0" d="M0 0l6 0c1,0 1,1 1,2l0 5 -7 0 0 -7z"/>
   <path class="fil1" d="M2 5l0 -1 1 0 0 1 1 0c0,0 0,0 0,-1 0,0 0,0 0,0 0,0 0,0 0,0 0,0 0,0 0,0 0,0 0,-1 0,-1 0,0 0,0 0,0 0,0 0,0 0,0 0,0 0,0 0,0l-1 0c0,0 0,0 0,0 0,0 0,0 0,-1 0,0 0,0 0,0l1 0c0,0 0,0 0,0 1,0 1,0 1,0 0,1 0,1 0,1 0,0 0,0 0,1 0,0 0,0 0,0 0,1 0,1 0,1 0,0 0,0 -1,0 0,0 0,0 0,0l-2 0z"/>
   <path class="fil2" d="M2 3c0,0 0,0 0,0 0,0 0,0 0,0 0,0 0,0 0,1 0,-1 0,-1 0,-1 0,0 0,0 1,0 0,1 0,0 0,0 0,-1 0,-1 0,-1 -1,0 -1,1 -1,1z"/>
   <path class="fil3" d="M2 5l0 -1 1 0 0 1 1 0c0,0 1,-1 1,-1l0 0c0,0 0,0 0,0 0,1 0,1 0,1 0,0 0,0 -1,0 0,0 0,0 0,0l-2 0z"/>
  </g>
 </g>
</svg>
